<svg width="34" height="32" viewBox="0 0 34 32" fill="none" xmlns="http://www.w3.org/2000/svg">
<path fill-rule="evenodd" clip-rule="evenodd" d="M21.0134 22.02C15.9337 25.9072 8.49814 25.6013 3.78931 21.1021C-1.2631 16.2747 -1.2631 8.44795 3.78931 3.62055C8.84171 -1.20685 17.0333 -1.20685 22.0857 3.62055C26.7945 8.11968 27.1147 15.2241 23.0463 20.0776L32.928 29.5191C33.4893 30.0555 33.4893 30.9251 32.928 31.4615C32.3666 31.9979 31.4564 31.9979 30.895 31.4615L21.0134 22.02ZM5.82224 19.1597C1.89259 15.4051 1.89259 9.31759 5.82224 5.56295C9.75189 1.8083 16.1231 1.8083 20.0528 5.56295C23.9795 9.31484 23.9824 15.3961 20.0614 19.1515C20.0585 19.1542 20.0556 19.1569 20.0527 19.1597C20.0498 19.1624 20.047 19.1652 20.0441 19.168C16.1138 22.9144 9.74901 22.9116 5.82224 19.1597Z" fill="white"/>
</svg>
